<?xml version="1.0" encoding="utf-8"?>
<!-- Generator: Adobe Illustrator 21.1.0, SVG Export Plug-In . SVG Version: 6.00 Build 0)  -->
<svg version="1.1" id="Layer_1" xmlns="http://www.w3.org/2000/svg" xmlns:xlink="http://www.w3.org/1999/xlink" x="0px" y="0px"
	 viewBox="0 0 903.3 682.1" style="enable-background:new 0 0 903.3 682.1;" xml:space="preserve">
<style type="text/css">
	.st0{fill:#00AF5F;}
</style>
<path class="st0" d="M804.7,480.9c-118.1,38-264.4-69-264.4-69s-53.4-58-80.2-106c-26.7-48-80.2-71-80.2-71l19.7-6
	c0,0-87.2-59-222.2,8c0,0-156.8-33.3-99-203.3c0.6-1.9,3.1-3.9,2-5.7c-33.8-54-71.7-13-71.7-13s-53.4,196,104.1,274
	c0,0-50.6,118,0,171l12.7-12c0,0,49.2,214,375.5,233s400.8-189,400.8-189S922.8,442.9,804.7,480.9z M451.7,343.9
	c142,227,369.9,152,369.9,152C557.2,588.9,451.7,343.9,451.7,343.9z"/>
</svg>
